<svg xmlns="http://www.w3.org/2000/svg" width="24.053" height="24" viewBox="0 0 24.053 24">
  <g id="XMLID_801_" transform="translate(0 -0.341)">
    <path id="XMLID_802_" d="M10.014,99.73H5.305a.378.378,0,0,0-.378.378v15.126a.378.378,0,0,0,.378.378h4.708a.378.378,0,0,0,.378-.378V100.108A.378.378,0,0,0,10.014,99.73Z" transform="translate(-4.554 -91.271)" fill="#ecebf3"/>
    <path id="XMLID_803_" d="M3.107.341a3.1,3.1,0,1,0,3.1,3.1A3.109,3.109,0,0,0,3.107.341Z" fill="#ecebf3"/>
    <path id="XMLID_804_" d="M115.578,94.761a5.53,5.53,0,0,0-4.137,1.737v-.982a.378.378,0,0,0-.378-.378h-4.509a.378.378,0,0,0-.378.378v15.126a.378.378,0,0,0,.378.378h4.7a.378.378,0,0,0,.378-.378v-7.484c0-2.522.685-3.5,2.443-3.5,1.915,0,2.067,1.575,2.067,3.634v7.354a.378.378,0,0,0,.378.378h4.7a.378.378,0,0,0,.378-.378v-8.3C121.6,98.594,120.881,94.761,115.578,94.761Z" transform="translate(-97.544 -86.678)" fill="#ecebf3"/>
  </g>
</svg>
