<svg xmlns="http://www.w3.org/2000/svg" width="48.649" height="48.649" viewBox="0 0 48.649 48.649"><g transform="translate(-23.611 46.238) rotate(-45)"><path d="M63,4.8V2.4H59V0H44.6V2.4h-4V4.8H38.2V7.2H35.8v4H33.4V25.6h2.4v4h2.4V32h2.4v2.4h4v2.4H59V34.4h4V32h2.4V27.2H51V24.8H48.6V22.4H46.2v-8h2.4V12H51V9.6H65.4V4.8Z" transform="translate(-0.006)" fill="#011828"/><path d="M278.261,69.205v2.422h14.533V66.783h-2.422v2.422Z" transform="translate(-227.403 -61.939)" fill="#011828"/><rect width="4.037" height="2.422" transform="translate(40.581 2.422)" fill="#011828"/><rect width="2.422" height="2.422" transform="translate(38.187 4.844)" fill="#011828"/><rect width="2.422" height="4.037" transform="translate(35.813 7.192)" fill="#011828"/><rect width="2.422" height="4.037" transform="translate(35.813 25.571)" fill="#011828"/><rect width="2.422" height="2.422" transform="translate(38.187 29.533)" fill="#011828"/><rect width="4.037" height="2.422" transform="translate(40.581 31.956)" fill="#011828"/><rect width="14.533" height="2.422" transform="translate(44.506)" fill="#011828"/><rect width="14.533" height="2.422" transform="translate(44.506 34.378)" fill="#011828"/><rect width="2.422" height="14.533" transform="translate(33.391 11.133)" fill="#011828"/><rect width="4.037" height="2.422" transform="translate(58.932 2.422)" fill="#011828"/><path d="M292.794,378.435H278.261v2.422h12.111v2.422h2.422Z" transform="translate(-227.403 -351.324)" fill="#011828"/><path d="M180.509,208.422v-8.074h-2.422v8.074h2.422v2.422h2.422v-2.422Z" transform="translate(-134.313 -186)" fill="#011828"/><rect width="2.422" height="2.422" transform="translate(48.58 24.784)" fill="#011828"/><rect width="2.422" height="2.422" transform="translate(46.181 11.992)" fill="#011828"/><rect width="2.422" height="2.422" transform="translate(48.58 9.594)" fill="#011828"/><rect width="4.037" height="2.422" transform="translate(58.932 31.956)" fill="#011828"/></g></svg>