<svg xmlns="http://www.w3.org/2000/svg" xmlns:xlink="http://www.w3.org/1999/xlink" width="36.489" height="34.172" viewBox="0 0 36.489 34.172"><defs><filter id="a" x="0.99" y="0.537" width="31.635" height="31.635" filterUnits="userSpaceOnUse"><feOffset dx="1" dy="1" input="SourceAlpha"/><feGaussianBlur stdDeviation="0.25" result="b"/><feFlood flood-color="#7f00b8"/><feComposite operator="in" in2="b"/><feComposite in="SourceGraphic"/></filter><filter id="c" x="1.961" y="2.742" width="27.827" height="27.827" filterUnits="userSpaceOnUse"><feOffset dx="1" dy="1" input="SourceAlpha"/><feGaussianBlur stdDeviation="0.25" result="d"/><feFlood flood-color="#7f00b8"/><feComposite operator="in" in2="d"/><feComposite in="SourceGraphic"/></filter><filter id="e" x="2.668" y="0.351" width="33.821" height="33.821" filterUnits="userSpaceOnUse"><feOffset dx="1" dy="1" input="SourceAlpha"/><feGaussianBlur stdDeviation="0.25" result="f"/><feFlood flood-color="#7f00b8"/><feComposite operator="in" in2="f"/><feComposite in="SourceGraphic"/></filter><filter id="g" x="0" y="0" width="33.821" height="33.821" filterUnits="userSpaceOnUse"><feOffset dx="1" dy="1" input="SourceAlpha"/><feGaussianBlur stdDeviation="0.25" result="h"/><feFlood flood-color="#7f00b8"/><feComposite operator="in" in2="h"/><feComposite in="SourceGraphic"/></filter><filter id="i" x="2.725" y="1.788" width="31.635" height="31.635" filterUnits="userSpaceOnUse"><feOffset dx="1" dy="1" input="SourceAlpha"/><feGaussianBlur stdDeviation="0.25" result="j"/><feFlood flood-color="#7f00b8"/><feComposite operator="in" in2="j"/><feComposite in="SourceGraphic"/></filter><filter id="k" x="2.129" y="0.749" width="31.635" height="31.635" filterUnits="userSpaceOnUse"><feOffset dx="1" dy="1" input="SourceAlpha"/><feGaussianBlur stdDeviation="0.25" result="l"/><feFlood flood-color="#7f00b8"/><feComposite operator="in" in2="l"/><feComposite in="SourceGraphic"/></filter></defs><g transform="translate(-29.028 -19.952)"><g transform="matrix(1, 0, 0, 1, 29.03, 19.95)" filter="url(#a)"><g transform="translate(0.99 11.48) rotate(-30)" fill="#7f00b8" stroke="#0fc" stroke-width="0.5" opacity="0.1"><circle cx="10.939" cy="10.939" r="10.939" stroke="none"/><circle cx="10.939" cy="10.939" r="10.689" fill="none"/></g></g><g transform="matrix(1, 0, 0, 1, 29.03, 19.95)" filter="url(#c)"><g transform="matrix(-0.26, -0.97, 0.97, -0.26, 7.47, 28.82)" fill="none" stroke="#0fc" stroke-width="0.5"><circle cx="10.646" cy="10.646" r="10.646" stroke="none"/><circle cx="10.646" cy="10.646" r="10.396" fill="none"/></g></g><g transform="matrix(1, 0, 0, 1, 29.03, 19.95)" filter="url(#e)"><g transform="translate(34.74 16.39) rotate(135)" fill="none" stroke="#0fc" stroke-width="0.5"><circle cx="11.339" cy="11.339" r="11.339" stroke="none"/><circle cx="11.339" cy="11.339" r="11.089" fill="none"/></g></g><g transform="matrix(1, 0, 0, 1, 29.03, 19.95)" filter="url(#g)"><g transform="translate(0 16.04) rotate(-45)" fill="none" stroke="#0fc" stroke-width="0.5"><circle cx="11.339" cy="11.339" r="11.339" stroke="none"/><circle cx="11.339" cy="11.339" r="11.089" fill="none"/></g></g><g transform="matrix(1, 0, 0, 1, 29.03, 19.95)" filter="url(#i)"><g transform="translate(21.67 1.79) rotate(60)" fill="none" stroke="#7f00b8" stroke-width="0.5"><circle cx="10.939" cy="10.939" r="10.939" stroke="none"/><circle cx="10.939" cy="10.939" r="10.689" fill="none"/></g></g><g transform="matrix(1, 0, 0, 1, 29.03, 19.95)" filter="url(#k)"><g transform="translate(13.07 30.63) rotate(-120)" fill="none" stroke="#7f00b8" stroke-width="0.5"><circle cx="10.939" cy="10.939" r="10.939" stroke="none"/><circle cx="10.939" cy="10.939" r="10.689" fill="none"/></g></g></g></svg>