<svg xmlns="http://www.w3.org/2000/svg" width="24.511" height="24" viewBox="0 0 24.511 24">
  <g id="github" transform="translate(0 0)">
    <g id="Group_62" data-name="Group 62" transform="translate(0 0)">
      <path id="Path_34" data-name="Path 34" d="M12.254,5.329A12.311,12.311,0,0,0,8.383,29.308c.613.113.836-.267.836-.593,0-.293-.011-1.066-.017-2.093-3.408.743-4.128-1.65-4.128-1.65a3.249,3.249,0,0,0-1.36-1.8c-1.114-.763.083-.748.083-.748a2.574,2.574,0,0,1,1.877,1.268A2.6,2.6,0,0,0,9.24,24.715a2.626,2.626,0,0,1,.778-1.645C7.3,22.759,4.436,21.7,4.436,16.99a4.769,4.769,0,0,1,1.262-3.3,4.434,4.434,0,0,1,.119-3.255s1.029-.331,3.37,1.261a11.568,11.568,0,0,1,6.137,0c2.339-1.592,3.367-1.261,3.367-1.261a4.44,4.44,0,0,1,.123,3.255,4.76,4.76,0,0,1,1.259,3.3c0,4.726-2.865,5.766-5.595,6.071a2.943,2.943,0,0,1,.832,2.278c0,1.645-.015,2.972-.015,3.375,0,.329.221.712.843.591A12.313,12.313,0,0,0,12.254,5.329Z" transform="translate(0 -5.329)" fill="#ecebf3"/>
    </g>
  </g>
</svg>
