<svg xmlns="http://www.w3.org/2000/svg" xmlns:xlink="http://www.w3.org/1999/xlink" width="437.264" height="440.036" viewBox="0 0 437.264 440.036"><defs><filter id="a" x="12.228" y="0" width="417.808" height="417.808" filterUnits="userSpaceOnUse"><feOffset dx="5" dy="5" input="SourceAlpha"/><feGaussianBlur stdDeviation="1" result="b"/><feFlood flood-color="#7f00b8"/><feComposite operator="in" in2="b"/><feComposite in="SourceGraphic"/></filter><filter id="c" x="14.685" y="29.43" width="375.423" height="375.423" filterUnits="userSpaceOnUse"><feOffset dx="5" dy="5" input="SourceAlpha"/><feGaussianBlur stdDeviation="1" result="d"/><feFlood flood-color="#7f00b8"/><feComposite operator="in" in2="d"/><feComposite in="SourceGraphic"/></filter><filter id="e" x="5" y="7.772" width="432.264" height="432.264" filterUnits="userSpaceOnUse"><feOffset dx="5" dy="5" input="SourceAlpha"/><feGaussianBlur stdDeviation="1" result="f"/><feFlood flood-color="#7f00b8"/><feComposite operator="in" in2="f"/><feComposite in="SourceGraphic"/></filter><filter id="g" x="0" y="2.772" width="432.264" height="432.264" filterUnits="userSpaceOnUse"><feOffset dx="5" dy="5" input="SourceAlpha"/><feGaussianBlur stdDeviation="1" result="h"/><feFlood flood-color="#7f00b8"/><feComposite operator="in" in2="h"/><feComposite in="SourceGraphic"/></filter><filter id="i" x="7.982" y="12.12" width="417.808" height="417.808" filterUnits="userSpaceOnUse"><feOffset dx="5" dy="5" input="SourceAlpha"/><feGaussianBlur stdDeviation="1" result="j"/><feFlood flood-color="#7f00b8"/><feComposite operator="in" in2="j"/><feComposite in="SourceGraphic"/></filter><filter id="k" x="11.475" y="12.88" width="417.808" height="417.808" filterUnits="userSpaceOnUse"><feOffset dx="5" dy="5" input="SourceAlpha"/><feGaussianBlur stdDeviation="1" result="l"/><feFlood flood-color="#7f00b8"/><feComposite operator="in" in2="l"/><feComposite in="SourceGraphic"/></filter></defs><g transform="translate(-1256.766 -324.048)"><g transform="matrix(1, 0, 0, 1, 1256.77, 324.05)" filter="url(#a)"><g transform="translate(12.23 150) rotate(-30)" fill="#7f00b8" stroke="#0fc" stroke-width="2" opacity="0.1"><circle cx="150" cy="150" r="150" stroke="none"/><circle cx="150" cy="150" r="149" fill="none"/></g></g><g transform="matrix(1, 0, 0, 1, 1256.77, 324.05)" filter="url(#c)"><g transform="matrix(-0.26, -0.97, 0.97, -0.26, 92.33, 396.85)" fill="none" stroke="#0fc" stroke-width="2"><circle cx="150" cy="150" r="150" stroke="none"/><circle cx="150" cy="150" r="149" fill="none"/></g></g><g transform="matrix(1, 0, 0, 1, 1256.77, 324.05)" filter="url(#e)"><g transform="translate(429.26 219.9) rotate(135)" fill="none" stroke="#0fc" stroke-width="2"><circle cx="150" cy="150" r="150" stroke="none"/><circle cx="150" cy="150" r="149" fill="none"/></g></g><g transform="matrix(1, 0, 0, 1, 1256.77, 324.05)" filter="url(#g)"><g transform="translate(0 214.9) rotate(-45)" fill="none" stroke="#0fc" stroke-width="2"><circle cx="150" cy="150" r="150" stroke="none"/><circle cx="150" cy="150" r="149" fill="none"/></g></g><g transform="matrix(1, 0, 0, 1, 1256.77, 324.05)" filter="url(#i)"><g transform="translate(267.79 12.12) rotate(60)" fill="none" stroke="#7f00b8" stroke-width="2"><circle cx="150" cy="150" r="150" stroke="none"/><circle cx="150" cy="150" r="149" fill="none"/></g></g><g transform="matrix(1, 0, 0, 1, 1256.77, 324.05)" filter="url(#k)"><g transform="translate(161.47 422.69) rotate(-120)" fill="none" stroke="#7f00b8" stroke-width="2"><circle cx="150" cy="150" r="150" stroke="none"/><circle cx="150" cy="150" r="149" fill="none"/></g></g></g></svg>