<svg xmlns="http://www.w3.org/2000/svg" width="655" height="850" viewBox="0 0 655 850">
  <g id="Group_212" data-name="Group 212" transform="translate(-1487 -319)">
    <path id="Polygon_2" data-name="Polygon 2" d="M187.5,0,250,125,187.5,250H62.5L0,125,62.5,0Z" transform="translate(2007 919) rotate(90)" fill="#7647b9"/>
    <path id="Polygon_6" data-name="Polygon 6" d="M187.5,0,250,125,187.5,250H62.5L0,125,62.5,0Z" transform="translate(2007 519) rotate(90)" fill="#7647b9"/>
    <path id="Polygon_5" data-name="Polygon 5" d="M187.5,0,250,125,187.5,250H62.5L0,125,62.5,0Z" transform="translate(1737 919) rotate(90)" fill="#ecebf3"/>
    <path id="Polygon_3" data-name="Polygon 3" d="M187.5,0,250,125,187.5,250H62.5L0,125,62.5,0Z" transform="translate(2142 719) rotate(90)" fill="#ecebf3"/>
    <path id="Polygon_7" data-name="Polygon 7" d="M187.5,0,250,125,187.5,250H62.5L0,125,62.5,0Z" transform="translate(2142 319) rotate(90)" fill="#ecebf3"/>
    <path id="Polygon_4" data-name="Polygon 4" d="M187.5,0,250,125,187.5,250H62.5L0,125,62.5,0Z" transform="translate(1872 719) rotate(90)" fill="#ecebf3"/>
  </g>
</svg>
