<svg xmlns="http://www.w3.org/2000/svg" width="790" height="850" viewBox="0 0 790 850"><g transform="translate(-1487 -319)"><path d="M187.5,0,250,125,187.5,250H62.5L0,125,62.5,0Z" transform="translate(2007 919) rotate(90)" fill="#7647b9"/><path d="M187.5,0,250,125,187.5,250H62.5L0,125,62.5,0Z" transform="translate(2277 919) rotate(90)" fill="#7647b9"/><path d="M187.5,0,250,125,187.5,250H62.5L0,125,62.5,0Z" transform="translate(2007 519) rotate(90)" fill="#7647b9"/><path d="M187.5,0,250,125,187.5,250H62.5L0,125,62.5,0Z" transform="translate(2277 519) rotate(90)" fill="#7647b9"/><path d="M187.5,0,250,125,187.5,250H62.5L0,125,62.5,0Z" transform="translate(1737 919) rotate(90)" fill="#ecebf3"/><path d="M187.5,0,250,125,187.5,250H62.5L0,125,62.5,0Z" transform="translate(2142 719) rotate(90)" fill="#ecebf3"/><path d="M187.5,0,250,125,187.5,250H62.5L0,125,62.5,0Z" transform="translate(2142 319) rotate(90)" fill="#ecebf3"/><path d="M187.5,0,250,125,187.5,250H62.5L0,125,62.5,0Z" transform="translate(1872 719) rotate(90)" fill="#ecebf3"/></g></svg>