<svg xmlns="http://www.w3.org/2000/svg" width="32" height="32" viewBox="0 0 32 32"><g opacity="0.8"><path d="M32,13.217V11.13H25.043V9.043h0V6.956H20.87V5.565h0V0H18.783V4.87H13.217V0H11.13V4.87h0V6.956H6.956V9.043h0V11.13H0v2.087H4.87v5.565H0V20.87H6.956v2.087h0v2.087H11.13V27.13h0V32h2.087V27.13h5.565V32H20.87V26.435h0V25.043h4.174V22.956h0V20.87H32V18.783H27.131V13.217Z" fill="#fff"/><rect width="2.075" height="2.075" transform="translate(25.054 4.872)" fill="#fff"/><rect width="2.075" height="2.075" transform="translate(27.158 2.767)" fill="#fff"/><rect width="2.075" height="2.075" transform="translate(4.872 4.872)" fill="#fff"/><rect width="2.075" height="2.075" transform="translate(2.767 2.767)" fill="#fff"/><rect width="2.075" height="2.075" transform="translate(4.872 25.054)" fill="#fff"/><rect width="2.075" height="2.075" transform="translate(2.767 27.158)" fill="#fff"/><rect width="2.075" height="2.075" transform="translate(25.054 25.054)" fill="#fff"/><rect width="2.075" height="2.075" transform="translate(27.158 27.158)" fill="#fff"/><path d="M407.613,180.162v-2.075H400.7v9.683h6.917V185.7h-4.842v-5.533Z" transform="translate(-375.613 -166.929)" fill="#fff"/><rect width="2.075" height="2.075" transform="translate(25.054 4.872)" fill="#fff"/><rect width="2.075" height="2.075" transform="translate(27.158 2.767)" fill="#fff"/><rect width="2.075" height="2.075" transform="translate(4.872 4.872)" fill="#fff"/><rect width="2.075" height="2.075" transform="translate(2.767 2.767)" fill="#fff"/><rect width="2.075" height="2.075" transform="translate(4.872 25.054)" fill="#fff"/><rect width="2.075" height="2.075" transform="translate(2.767 27.158)" fill="#fff"/><rect width="2.075" height="2.075" transform="translate(25.054 25.054)" fill="#fff"/><rect width="2.075" height="2.075" transform="translate(27.158 27.158)" fill="#fff"/><path d="M8.992,127.375h0v-2.1H6.917V115.5H8.992v-2.1h2.075v-2.1H6.917v2.1h0v2.1H0v2.1H4.842v5.59H0v2.1H6.917v2.1h0v2.1h4.15v-2.1Z" transform="translate(0 -104.387)" fill="#fff"/><path d="M187.77,5.533h0V0H185.7V4.842h-5.533V0h-2.075V4.842h0V6.917h9.683Z" transform="translate(-166.929)" fill="#fff"/><path d="M178.087,402.771h0v4.842h2.075v-4.842H185.7v4.842h2.075v-5.533h0V400.7h-9.683Z" transform="translate(-166.929 -375.613)" fill="#fff"/><path d="M333.913,113.379h2.075v2.075h2.075v-2.075h0V111.3h-4.15Z" transform="translate(-313.025 -104.342)" fill="#fff"/><path d="M338.063,335.988v-2.075h-2.075v2.075h-2.075v2.075h4.15Z" transform="translate(-313.025 -313.025)" fill="#fff"/></g></svg>